<svg width="16" height="16" viewBox="0 0 16 16" fill="none" xmlns="http://www.w3.org/2000/svg">
<path d="M14.275 11.8437C14.6615 11.1394 14.8681 10.3504 14.8761 9.54701C14.8842 8.7436 14.6935 7.95066 14.3212 7.23871C13.9488 6.52677 13.4063 5.91789 12.7418 5.46624C12.0773 5.0146 11.3115 4.73418 10.5125 4.64995C10.2589 4.03905 9.8836 3.48615 9.40951 3.0249C8.93542 2.56365 8.37242 2.2037 7.75479 1.96697C7.13716 1.73024 6.47781 1.62167 5.81688 1.64787C5.15595 1.67407 4.50727 1.8345 3.91032 2.11939C3.31337 2.40428 2.78064 2.80767 2.34455 3.30501C1.90847 3.80234 1.57815 4.38322 1.37371 5.01228C1.16927 5.64134 1.09498 6.30542 1.15537 6.96411C1.21576 7.62279 1.40955 8.2623 1.72497 8.8437L1.32497 10.2499C1.28891 10.3782 1.28766 10.5137 1.32135 10.6426C1.35504 10.7715 1.42245 10.8891 1.51664 10.9833C1.61084 11.0775 1.72843 11.1449 1.85731 11.1786C1.98619 11.2123 2.12172 11.211 2.24997 11.1749L3.65622 10.7749C4.22203 11.0872 4.84474 11.2827 5.48747 11.3499C5.74783 11.9852 6.13944 12.5583 6.63666 13.0318C7.13388 13.5052 7.72549 13.8683 8.37276 14.0972C9.02003 14.3261 9.70835 14.4158 10.3927 14.3602C11.077 14.3047 11.7418 14.1053 12.3437 13.7749L13.75 14.1749C13.8784 14.2132 14.0148 14.216 14.1447 14.1831C14.2746 14.1502 14.3933 14.0828 14.488 13.988C14.5828 13.8932 14.6502 13.7746 14.6831 13.6447C14.716 13.5148 14.7132 13.3784 14.675 13.2499L14.275 11.8437ZM3.70622 9.9937C3.66995 9.99334 3.63392 9.99969 3.59997 10.0124L2.04372 10.4562L2.48747 8.89995C2.50307 8.85122 2.50779 8.79966 2.50131 8.74891C2.49484 8.69816 2.47731 8.64945 2.44997 8.6062C1.93853 7.74309 1.75971 6.72298 1.94707 5.73737C2.13443 4.75176 2.67509 3.86843 3.46756 3.25319C4.26002 2.63794 5.2498 2.3331 6.2511 2.39588C7.25239 2.45866 8.19634 2.88475 8.90575 3.59416C9.61516 4.30357 10.0413 5.24752 10.104 6.24882C10.1668 7.25011 9.86197 8.23989 9.24673 9.03236C8.63149 9.82483 7.74815 10.3655 6.76254 10.5528C5.77693 10.7402 4.75683 10.5614 3.89372 10.0499C3.83799 10.0134 3.77285 9.99388 3.70622 9.9937ZM13.5125 11.8999L13.9562 13.4562L12.4 13.0124C12.3512 12.9968 12.2997 12.9921 12.2489 12.9986C12.1982 13.0051 12.1495 13.0226 12.1062 13.0499C11.6199 13.3376 11.0797 13.5224 10.5191 13.5929C9.95844 13.6635 9.38931 13.6182 8.84686 13.4601C8.30442 13.3019 7.80018 13.0342 7.36533 12.6734C6.93048 12.3126 6.57427 11.8664 6.31872 11.3624C7.55293 11.2801 8.70986 10.7322 9.55563 9.8296C10.4014 8.92698 10.873 7.73691 10.875 6.49995C10.8736 6.14462 10.8337 5.79048 10.7562 5.4437C11.4087 5.56624 12.0219 5.84421 12.5442 6.25405C13.0664 6.6639 13.4821 7.19355 13.7562 7.79816C14.0303 8.40278 14.1547 9.06454 14.1188 9.72741C14.0829 10.3903 13.8878 11.0347 13.55 11.6062C13.5226 11.6494 13.5051 11.6982 13.4986 11.7489C13.4921 11.7997 13.4969 11.8512 13.5125 11.8999Z" fill="white"/>
</svg>
