<svg width="20" height="22" viewBox="0 0 20 22" fill="none" xmlns="http://www.w3.org/2000/svg">
<path d="M7.14373 19.7821V16.7152C7.14372 15.9381 7.77567 15.3067 8.55844 15.3018H11.4326C12.2189 15.3018 12.8563 15.9346 12.8563 16.7152V19.7732C12.8562 20.4473 13.404 20.9951 14.0829 21H16.0438C16.9596 21.0023 17.8388 20.6428 18.4872 20.0007C19.1356 19.3586 19.5 18.4868 19.5 17.5775V8.86585C19.5 8.13139 19.1721 7.43471 18.6046 6.9635L11.943 1.67427C10.7785 0.749123 9.11537 0.779008 7.98539 1.74538L1.46701 6.9635C0.872741 7.42082 0.517552 8.11956 0.5 8.86585V17.5686C0.5 19.4637 2.04738 21 3.95617 21H5.87229C6.19917 21.0023 6.51349 20.8751 6.74547 20.6464C6.97746 20.4178 7.10793 20.1067 7.10792 19.7821H7.14373Z" fill="#8FC2F3" stroke="#1587F8"/>
</svg>
