<svg width="24" height="24" viewBox="0 0 24 24" fill="none" xmlns="http://www.w3.org/2000/svg">
<path d="M21.4126 17.7655C21.9924 16.7091 22.3022 15.5256 22.3143 14.3205C22.3264 13.1154 22.0404 11.926 21.4819 10.8581C20.9233 9.79015 20.1095 8.87683 19.1128 8.19936C18.1161 7.52189 16.9673 7.10128 15.7688 6.97492C15.3884 6.05857 14.8255 5.22922 14.1144 4.53735C13.4032 3.84547 12.5588 3.30555 11.6323 2.95045C10.7059 2.59535 9.71683 2.4325 8.72544 2.47181C7.73405 2.51111 6.76103 2.75176 5.8656 3.17909C4.97017 3.60642 4.17108 4.21151 3.51695 4.95751C2.86282 5.70351 2.36735 6.57483 2.06069 7.51842C1.75403 8.46201 1.64259 9.45813 1.73318 10.4462C1.82376 11.4342 2.11445 12.3934 2.58757 13.2655L1.98757 15.3749C1.93349 15.5673 1.93162 15.7706 1.98215 15.9639C2.03268 16.1572 2.13379 16.3336 2.27509 16.4749C2.41638 16.6162 2.59276 16.7173 2.78609 16.7678C2.97941 16.8184 3.18271 16.8165 3.37507 16.7624L5.48445 16.1624C6.33317 16.6307 7.26723 16.924 8.23132 17.0249C8.62186 17.9778 9.20928 18.8375 9.95511 19.5477C10.7009 20.2578 11.5884 20.8024 12.5593 21.1458C13.5302 21.4892 14.5626 21.6237 15.5891 21.5404C16.6156 21.4571 17.6129 21.1579 18.5157 20.6624L20.6251 21.2624C20.8177 21.3198 21.0223 21.324 21.2172 21.2746C21.4121 21.2253 21.59 21.1242 21.7322 20.982C21.8743 20.8399 21.9754 20.6619 22.0248 20.4671C22.0741 20.2722 22.0699 20.0676 22.0126 19.8749L21.4126 17.7655ZM5.55945 14.9905C5.50504 14.99 5.451 14.9995 5.40007 15.0187L3.0657 15.6843L3.73132 13.3499C3.75472 13.2768 3.76181 13.1995 3.75209 13.1234C3.74237 13.0472 3.71608 12.9742 3.67507 12.9093C2.90792 11.6146 2.63968 10.0845 2.92072 8.60606C3.20176 7.12765 4.01276 5.80264 5.20146 4.87978C6.39016 3.95691 7.87483 3.49965 9.37677 3.59382C10.8787 3.68799 12.2946 4.32713 13.3588 5.39124C14.4229 6.45536 15.062 7.87129 15.1562 9.37323C15.2503 10.8752 14.7931 12.3598 13.8702 13.5485C12.9474 14.7372 11.6223 15.5482 10.1439 15.8293C8.66552 16.1103 7.13536 15.8421 5.8407 15.0749C5.7571 15.0201 5.65939 14.9908 5.55945 14.9905ZM20.2688 17.8499L20.9344 20.1843L18.6001 19.5187C18.527 19.4953 18.4496 19.4882 18.3735 19.4979C18.2974 19.5076 18.2243 19.5339 18.1594 19.5749C17.4299 20.0064 16.6196 20.2835 15.7787 20.3894C14.9378 20.4952 14.0841 20.4274 13.2704 20.1901C12.4567 19.9529 11.7004 19.5512 11.0481 19.01C10.3958 18.4688 9.86153 17.7996 9.4782 17.0437C11.3295 16.9201 13.0649 16.0983 14.3336 14.7444C15.6022 13.3905 16.3096 11.6054 16.3126 9.74992C16.3105 9.21692 16.2507 8.68571 16.1344 8.16555C17.1131 8.34936 18.033 8.76631 18.8164 9.38108C19.5997 9.99585 20.2233 10.7903 20.6345 11.6972C21.0456 12.6042 21.2322 13.5968 21.1783 14.5911C21.1245 15.5854 20.8318 16.5521 20.3251 17.4093C20.2841 17.4742 20.2578 17.5472 20.248 17.6234C20.2383 17.6995 20.2454 17.7768 20.2688 17.8499Z" fill="white"/>
</svg>
