<svg width="24" height="24" viewBox="0 0 24 24" fill="none" xmlns="http://www.w3.org/2000/svg">
<path fill-rule="evenodd" clip-rule="evenodd" d="M17.294 7.29105C17.294 10.2281 14.9391 12.5831 12 12.5831C9.0619 12.5831 6.70601 10.2281 6.70601 7.29105C6.70601 4.35402 9.0619 2 12 2C14.9391 2 17.294 4.35402 17.294 7.29105ZM12 22C7.66237 22 4 21.295 4 18.575C4 15.8539 7.68538 15.1739 12 15.1739C16.3386 15.1739 20 15.8789 20 18.599C20 21.32 16.3146 22 12 22Z" fill="#58A2EB"/>
<path d="M12 13.0831C15.2151 13.0831 17.794 10.5043 17.794 7.29105H16.794C16.794 9.95183 14.6631 12.0831 12 12.0831V13.0831ZM6.20601 7.29105C6.20601 10.5044 8.78593 13.0831 12 13.0831V12.0831C9.33787 12.0831 7.20601 9.95177 7.20601 7.29105H6.20601ZM12 1.5C8.78605 1.5 6.20601 4.07759 6.20601 7.29105H7.20601C7.20601 4.63046 9.33775 2.5 12 2.5V1.5ZM17.794 7.29105C17.794 4.07765 15.215 1.5 12 1.5V2.5C14.6632 2.5 16.794 4.6304 16.794 7.29105H17.794ZM3.5 18.575C3.5 19.3798 3.77559 20.0544 4.27141 20.5955C4.7569 21.1252 5.43235 21.5047 6.20648 21.7788C7.74807 22.3247 9.81903 22.5 12 22.5V21.5C9.84334 21.5 7.9143 21.3228 6.5403 20.8362C5.85663 20.5941 5.34539 20.2873 5.00864 19.9198C4.68221 19.5636 4.5 19.1302 4.5 18.575H3.5ZM12 14.6739C9.83143 14.6739 7.76102 14.8428 6.21716 15.382C5.44197 15.6528 4.76404 16.0287 4.27621 16.5561C3.77773 17.095 3.5 17.769 3.5 18.575H4.5C4.5 18.0205 4.68294 17.589 5.0103 17.2351C5.34831 16.8697 5.86139 16.5655 6.54688 16.3261C7.92436 15.845 9.85395 15.6739 12 15.6739V14.6739ZM20.5 18.599C20.5 17.7942 20.2245 17.1195 19.7288 16.5785C19.2434 16.0487 18.568 15.6693 17.7939 15.3951C16.2524 14.8492 14.1815 14.6739 12 14.6739V15.6739C14.1572 15.6739 16.0862 15.8512 17.4601 16.3378C18.1437 16.5799 18.6548 16.8866 18.9915 17.2541C19.3178 17.6103 19.5 18.0437 19.5 18.599H20.5ZM12 22.5C14.1686 22.5 16.239 22.3311 17.7828 21.7919C18.558 21.5212 19.236 21.1452 19.7238 20.6178C20.2223 20.0789 20.5 19.405 20.5 18.599H19.5C19.5 19.1535 19.3171 19.5849 18.9897 19.9388C18.6517 20.3042 18.1386 20.6084 17.4531 20.8478C16.0756 21.3289 14.1461 21.5 12 21.5V22.5Z" fill="#1587F8"/>
</svg>
