<svg width="2" height="14" viewBox="0 0 2 14" fill="none" xmlns="http://www.w3.org/2000/svg">
<g clip-path="url(#clip0_1_329)">
<path d="M1.00002 13.6667C1.46026 13.6667 1.83335 13.2936 1.83335 12.8333C1.83335 12.3731 1.46026 12 1.00002 12C0.539783 12 0.166687 12.3731 0.166687 12.8333C0.166687 13.2936 0.539783 13.6667 1.00002 13.6667Z" fill="#123258"/>
<path d="M1.00002 7.83329C1.46026 7.83329 1.83335 7.4602 1.83335 6.99996C1.83335 6.53972 1.46026 6.16663 1.00002 6.16663C0.539783 6.16663 0.166687 6.53972 0.166687 6.99996C0.166687 7.4602 0.539783 7.83329 1.00002 7.83329Z" fill="#123258"/>
<path d="M1.00002 2.00004C1.46026 2.00004 1.83335 1.62694 1.83335 1.16671C1.83335 0.70647 1.46026 0.333374 1.00002 0.333374C0.539783 0.333374 0.166687 0.70647 0.166687 1.16671C0.166687 1.62694 0.539783 2.00004 1.00002 2.00004Z" fill="#123258"/>
</g>
<defs>
<clipPath id="clip0_1_329">
<rect width="2" height="14" fill="white"/>
</clipPath>
</defs>
</svg>
